<?xml version="1.0" standalone="no"?>
<svg xmlns="http://www.w3.org/2000/svg" xmlns:xlink="http://www.w3.org/1999/xlink" width="422pt" height="332pt" viewBox="0.00 0.00 422.00 332.00">
<g id="graph0" class="graph" transform="translate(4,328) scale(1)" data-name="G">

<polygon fill="white" stroke="none" points="-4,4 -4,-328 418,-328 418,4 -4,4" style=""/>
<!-- 5744124160 -->
<g id="node1" class="node" pointer-events="visible" data-name="5744124160">

<ellipse fill="none" stroke="black" cx="135" cy="-306" rx="27" ry="18" style=""/>
<text text-anchor="middle" x="135" y="-301.8" font-family="Times,serif" font-size="14.00" style="">33</text>
</g>
<!-- 5744124192 -->
<g id="node2" class="node" pointer-events="visible" data-name="5744124192">

<ellipse fill="none" stroke="black" cx="99" cy="-234" rx="27" ry="18" style=""/>
<text text-anchor="middle" x="99" y="-229.8" font-family="Times,serif" font-size="14.00" style="">12</text>
</g>
<!-- 5744124160&#45;&gt;5744124192 -->
<g id="edge1" class="edge" data-name="5744124160-&gt;5744124192">

<path fill="none" stroke="black" d="M126.65,-288.76C122.42,-280.55 117.19,-270.37 112.42,-261.09" style=""/>
<polygon fill="black" stroke="black" points="115.68,-259.79 108,-252.49 109.46,-262.99 115.68,-259.79" style=""/>
</g>
<!-- 5744124032 -->
<g id="node3" class="node" pointer-events="visible" data-name="5744124032">

<ellipse fill="none" stroke="black" cx="207" cy="-234" rx="27" ry="18" style=""/>
<text text-anchor="middle" x="207" y="-229.8" font-family="Times,serif" font-size="14.00" style="">42</text>
</g>
<!-- 5744124160&#45;&gt;5744124032 -->
<g id="edge2" class="edge" data-name="5744124160-&gt;5744124032">

<path fill="none" stroke="black" d="M149.92,-290.5C159.77,-280.92 172.86,-268.19 184.03,-257.34" style=""/>
<polygon fill="black" stroke="black" points="186.29,-260.02 191.02,-250.54 181.41,-255 186.29,-260.02" style=""/>
</g>
<!-- 5744124064 -->
<g id="node4" class="node" pointer-events="visible" data-name="5744124064">

<ellipse fill="none" stroke="black" cx="27" cy="-162" rx="27" ry="18" style=""/>
<text text-anchor="middle" x="27" y="-157.8" font-family="Times,serif" font-size="14.00" style="">8</text>
</g>
<!-- 5744124192&#45;&gt;5744124064 -->
<g id="edge3" class="edge" data-name="5744124192-&gt;5744124064">

<path fill="none" stroke="black" d="M84.08,-218.5C74.23,-208.92 61.14,-196.19 49.97,-185.34" style=""/>
<polygon fill="black" stroke="black" points="52.59,-183 42.98,-178.54 47.71,-188.02 52.59,-183" style=""/>
</g>
<!-- 5744123904 -->
<g id="node5" class="node" pointer-events="visible" data-name="5744123904">

<ellipse fill="none" stroke="black" cx="99" cy="-162" rx="27" ry="18" style=""/>
<text text-anchor="middle" x="99" y="-157.8" font-family="Times,serif" font-size="14.00" style="">15</text>
</g>
<!-- 5744124192&#45;&gt;5744123904 -->
<g id="edge4" class="edge" data-name="5744124192-&gt;5744123904">

<path fill="none" stroke="black" d="M99,-215.7C99,-208.41 99,-199.73 99,-191.54" style=""/>
<polygon fill="black" stroke="black" points="102.5,-191.62 99,-181.62 95.5,-191.62 102.5,-191.62" style=""/>
</g>
<!-- 5744123936 -->
<g id="node9" class="node" pointer-events="visible" data-name="5744123936">

<ellipse fill="none" stroke="black" cx="207" cy="-162" rx="27" ry="18" style=""/>
<text text-anchor="middle" x="207" y="-157.8" font-family="Times,serif" font-size="14.00" style="">40</text>
</g>
<!-- 5744124032&#45;&gt;5744123936 -->
<g id="edge8" class="edge" data-name="5744124032-&gt;5744123936">

<path fill="none" stroke="black" d="M207,-215.7C207,-208.41 207,-199.73 207,-191.54" style=""/>
<polygon fill="black" stroke="black" points="210.5,-191.62 207,-181.62 203.5,-191.62 210.5,-191.62" style=""/>
</g>
<!-- 5744123168 -->
<g id="node10" class="node" pointer-events="visible" data-name="5744123168">

<ellipse fill="none" stroke="black" cx="315" cy="-162" rx="27" ry="18" style=""/>
<text text-anchor="middle" x="315" y="-157.8" font-family="Times,serif" font-size="14.00" style="">55</text>
</g>
<!-- 5744124032&#45;&gt;5744123168 -->
<g id="edge9" class="edge" data-name="5744124032-&gt;5744123168">

<path fill="none" stroke="black" d="M225.81,-220.81C242.59,-209.93 267.39,-193.86 286.59,-181.42" style=""/>
<polygon fill="black" stroke="black" points="288.28,-184.49 294.77,-176.11 284.48,-178.61 288.28,-184.49" style=""/>
</g>
<!-- 5744123200 -->
<g id="node6" class="node" pointer-events="visible" data-name="5744123200">

<ellipse fill="none" stroke="black" cx="27" cy="-90" rx="27" ry="18" style=""/>
<text text-anchor="middle" x="27" y="-85.8" font-family="Times,serif" font-size="14.00" style="">4</text>
</g>
<!-- 5744124064&#45;&gt;5744123200 -->
<g id="edge5" class="edge" data-name="5744124064-&gt;5744123200">

<path fill="none" stroke="black" d="M27,-143.7C27,-136.41 27,-127.73 27,-119.54" style=""/>
<polygon fill="black" stroke="black" points="30.5,-119.62 27,-109.62 23.5,-119.62 30.5,-119.62" style=""/>
</g>
<!-- 5744123392 -->
<g id="node8" class="node" pointer-events="visible" data-name="5744123392">

<ellipse fill="none" stroke="black" cx="99" cy="-90" rx="27" ry="18" style=""/>
<text text-anchor="middle" x="99" y="-85.8" font-family="Times,serif" font-size="14.00" style="">13</text>
</g>
<!-- 5744123904&#45;&gt;5744123392 -->
<g id="edge7" class="edge" data-name="5744123904-&gt;5744123392">

<path fill="none" stroke="black" d="M99,-143.7C99,-136.41 99,-127.73 99,-119.54" style=""/>
<polygon fill="black" stroke="black" points="102.5,-119.62 99,-109.62 95.5,-119.62 102.5,-119.62" style=""/>
</g>
<!-- 5744123360 -->
<g id="node7" class="node" pointer-events="visible" data-name="5744123360">

<ellipse fill="none" stroke="black" cx="27" cy="-18" rx="27" ry="18" style=""/>
<text text-anchor="middle" x="27" y="-13.8" font-family="Times,serif" font-size="14.00" style="">2</text>
</g>
<!-- 5744123200&#45;&gt;5744123360 -->
<g id="edge6" class="edge" data-name="5744123200-&gt;5744123360">

<path fill="none" stroke="black" d="M27,-71.7C27,-64.41 27,-55.73 27,-47.54" style=""/>
<polygon fill="black" stroke="black" points="30.5,-47.62 27,-37.62 23.5,-47.62 30.5,-47.62" style=""/>
</g>
<!-- 5744123232 -->
<g id="node11" class="node" pointer-events="visible" data-name="5744123232">

<ellipse fill="none" stroke="black" cx="171" cy="-90" rx="27" ry="18" style=""/>
<text text-anchor="middle" x="171" y="-85.8" font-family="Times,serif" font-size="14.00" style="">38</text>
</g>
<!-- 5744123936&#45;&gt;5744123232 -->
<g id="edge10" class="edge" data-name="5744123936-&gt;5744123232">

<path fill="none" stroke="black" d="M198.65,-144.76C194.42,-136.55 189.19,-126.37 184.42,-117.09" style=""/>
<polygon fill="black" stroke="black" points="187.68,-115.79 180,-108.49 181.46,-118.99 187.68,-115.79" style=""/>
</g>
<!-- 5744123264 -->
<g id="node12" class="node" pointer-events="visible" data-name="5744123264">

<ellipse fill="none" stroke="black" cx="243" cy="-90" rx="27" ry="18" style=""/>
<text text-anchor="middle" x="243" y="-85.8" font-family="Times,serif" font-size="14.00" style="">41</text>
</g>
<!-- 5744123936&#45;&gt;5744123264 -->
<g id="edge11" class="edge" data-name="5744123936-&gt;5744123264">

<path fill="none" stroke="black" d="M215.35,-144.76C219.58,-136.55 224.81,-126.37 229.58,-117.09" style=""/>
<polygon fill="black" stroke="black" points="232.54,-118.99 234,-108.49 226.32,-115.79 232.54,-118.99" style=""/>
</g>
<!-- 5744123296 -->
<g id="node13" class="node" pointer-events="visible" data-name="5744123296">

<ellipse fill="none" stroke="black" cx="315" cy="-90" rx="27" ry="18" style=""/>
<text text-anchor="middle" x="315" y="-85.8" font-family="Times,serif" font-size="14.00" style="">50</text>
</g>
<!-- 5744123168&#45;&gt;5744123296 -->
<g id="edge12" class="edge" data-name="5744123168-&gt;5744123296">

<path fill="none" stroke="black" d="M315,-143.7C315,-136.41 315,-127.73 315,-119.54" style=""/>
<polygon fill="black" stroke="black" points="318.5,-119.62 315,-109.62 311.5,-119.62 318.5,-119.62" style=""/>
</g>
<!-- 5744123328 -->
<g id="node14" class="node" pointer-events="visible" data-name="5744123328">

<ellipse fill="none" stroke="black" cx="387" cy="-90" rx="27" ry="18" style=""/>
<text text-anchor="middle" x="387" y="-85.8" font-family="Times,serif" font-size="14.00" style="">62</text>
</g>
<!-- 5744123168&#45;&gt;5744123328 -->
<g id="edge13" class="edge" data-name="5744123168-&gt;5744123328">

<path fill="none" stroke="black" d="M329.92,-146.5C339.77,-136.92 352.86,-124.19 364.03,-113.34" style=""/>
<polygon fill="black" stroke="black" points="366.29,-116.02 371.02,-106.54 361.41,-111 366.29,-116.02" style=""/>
</g>
</g>
</svg>