<?xml version="1.0" standalone="no"?>
<svg xmlns="http://www.w3.org/2000/svg" xmlns:xlink="http://www.w3.org/1999/xlink" width="350pt" height="332pt" viewBox="0.00 0.00 350.00 332.00">
<g id="graph0" class="graph" transform="translate(4,328) scale(1)" data-name="G">

<polygon fill="white" stroke="none" points="-4,4 -4,-328 346,-328 346,4 -4,4" style=""/>
<!-- 5022703872 -->
<g id="node1" class="node" pointer-events="visible" data-name="5022703872">

<ellipse fill="none" stroke="black" cx="135" cy="-306" rx="27" ry="18" style=""/>
<text text-anchor="middle" x="135" y="-301.8" font-family="Times,serif" font-size="14.00" style="">33</text>
</g>
<!-- 5022703904 -->
<g id="node2" class="node" pointer-events="visible" data-name="5022703904">

<ellipse fill="none" stroke="black" cx="99" cy="-234" rx="27" ry="18" style=""/>
<text text-anchor="middle" x="99" y="-229.8" font-family="Times,serif" font-size="14.00" style="">12</text>
</g>
<!-- 5022703872&#45;&gt;5022703904 -->
<g id="edge1" class="edge" data-name="5022703872-&gt;5022703904">

<path fill="none" stroke="black" d="M126.65,-288.76C122.42,-280.55 117.19,-270.37 112.42,-261.09" style=""/>
<polygon fill="black" stroke="black" points="115.68,-259.79 108,-252.49 109.46,-262.99 115.68,-259.79" style=""/>
</g>
<!-- 5022703744 -->
<g id="node3" class="node" pointer-events="visible" data-name="5022703744">

<ellipse fill="none" stroke="black" cx="189" cy="-234" rx="27" ry="18" style=""/>
<text text-anchor="middle" x="189" y="-229.8" font-family="Times,serif" font-size="14.00" style="">50</text>
</g>
<!-- 5022703872&#45;&gt;5022703744 -->
<g id="edge2" class="edge" data-name="5022703872-&gt;5022703744">

<path fill="none" stroke="black" d="M146.98,-289.46C153.77,-280.67 162.4,-269.48 170.08,-259.53" style=""/>
<polygon fill="black" stroke="black" points="172.79,-261.75 176.12,-251.69 167.25,-257.47 172.79,-261.75" style=""/>
</g>
<!-- 5022703776 -->
<g id="node4" class="node" pointer-events="visible" data-name="5022703776">

<ellipse fill="none" stroke="black" cx="27" cy="-162" rx="27" ry="18" style=""/>
<text text-anchor="middle" x="27" y="-157.8" font-family="Times,serif" font-size="14.00" style="">8</text>
</g>
<!-- 5022703904&#45;&gt;5022703776 -->
<g id="edge3" class="edge" data-name="5022703904-&gt;5022703776">

<path fill="none" stroke="black" d="M84.08,-218.5C74.23,-208.92 61.14,-196.19 49.97,-185.34" style=""/>
<polygon fill="black" stroke="black" points="52.59,-183 42.98,-178.54 47.71,-188.02 52.59,-183" style=""/>
</g>
<!-- 5022703616 -->
<g id="node5" class="node" pointer-events="visible" data-name="5022703616">

<ellipse fill="none" stroke="black" cx="99" cy="-162" rx="27" ry="18" style=""/>
<text text-anchor="middle" x="99" y="-157.8" font-family="Times,serif" font-size="14.00" style="">15</text>
</g>
<!-- 5022703904&#45;&gt;5022703616 -->
<g id="edge4" class="edge" data-name="5022703904-&gt;5022703616">

<path fill="none" stroke="black" d="M99,-215.7C99,-208.41 99,-199.73 99,-191.54" style=""/>
<polygon fill="black" stroke="black" points="102.5,-191.62 99,-181.62 95.5,-191.62 102.5,-191.62" style=""/>
</g>
<!-- 5022703648 -->
<g id="node9" class="node" pointer-events="visible" data-name="5022703648">

<ellipse fill="none" stroke="black" cx="189" cy="-162" rx="27" ry="18" style=""/>
<text text-anchor="middle" x="189" y="-157.8" font-family="Times,serif" font-size="14.00" style="">40</text>
</g>
<!-- 5022703744&#45;&gt;5022703648 -->
<g id="edge8" class="edge" data-name="5022703744-&gt;5022703648">

<path fill="none" stroke="black" d="M189,-215.7C189,-208.41 189,-199.73 189,-191.54" style=""/>
<polygon fill="black" stroke="black" points="192.5,-191.62 189,-181.62 185.5,-191.62 192.5,-191.62" style=""/>
</g>
<!-- 5022702880 -->
<g id="node10" class="node" pointer-events="visible" data-name="5022702880">

<ellipse fill="none" stroke="black" cx="297" cy="-162" rx="27" ry="18" style=""/>
<text text-anchor="middle" x="297" y="-157.8" font-family="Times,serif" font-size="14.00" style="">55</text>
</g>
<!-- 5022703744&#45;&gt;5022702880 -->
<g id="edge9" class="edge" data-name="5022703744-&gt;5022702880">

<path fill="none" stroke="black" d="M207.81,-220.81C224.59,-209.93 249.39,-193.86 268.59,-181.42" style=""/>
<polygon fill="black" stroke="black" points="270.28,-184.49 276.77,-176.11 266.48,-178.61 270.28,-184.49" style=""/>
</g>
<!-- 5022702912 -->
<g id="node6" class="node" pointer-events="visible" data-name="5022702912">

<ellipse fill="none" stroke="black" cx="27" cy="-90" rx="27" ry="18" style=""/>
<text text-anchor="middle" x="27" y="-85.8" font-family="Times,serif" font-size="14.00" style="">4</text>
</g>
<!-- 5022703776&#45;&gt;5022702912 -->
<g id="edge5" class="edge" data-name="5022703776-&gt;5022702912">

<path fill="none" stroke="black" d="M27,-143.7C27,-136.41 27,-127.73 27,-119.54" style=""/>
<polygon fill="black" stroke="black" points="30.5,-119.62 27,-109.62 23.5,-119.62 30.5,-119.62" style=""/>
</g>
<!-- 5022703104 -->
<g id="node8" class="node" pointer-events="visible" data-name="5022703104">

<ellipse fill="none" stroke="black" cx="99" cy="-90" rx="27" ry="18" style=""/>
<text text-anchor="middle" x="99" y="-85.8" font-family="Times,serif" font-size="14.00" style="">13</text>
</g>
<!-- 5022703616&#45;&gt;5022703104 -->
<g id="edge7" class="edge" data-name="5022703616-&gt;5022703104">

<path fill="none" stroke="black" d="M99,-143.7C99,-136.41 99,-127.73 99,-119.54" style=""/>
<polygon fill="black" stroke="black" points="102.5,-119.62 99,-109.62 95.5,-119.62 102.5,-119.62" style=""/>
</g>
<!-- 5022703072 -->
<g id="node7" class="node" pointer-events="visible" data-name="5022703072">

<ellipse fill="none" stroke="black" cx="27" cy="-18" rx="27" ry="18" style=""/>
<text text-anchor="middle" x="27" y="-13.8" font-family="Times,serif" font-size="14.00" style="">2</text>
</g>
<!-- 5022702912&#45;&gt;5022703072 -->
<g id="edge6" class="edge" data-name="5022702912-&gt;5022703072">

<path fill="none" stroke="black" d="M27,-71.7C27,-64.41 27,-55.73 27,-47.54" style=""/>
<polygon fill="black" stroke="black" points="30.5,-47.62 27,-37.62 23.5,-47.62 30.5,-47.62" style=""/>
</g>
<!-- 5022702944 -->
<g id="node11" class="node" pointer-events="visible" data-name="5022702944">

<ellipse fill="none" stroke="black" cx="171" cy="-90" rx="27" ry="18" style=""/>
<text text-anchor="middle" x="171" y="-85.8" font-family="Times,serif" font-size="14.00" style="">38</text>
</g>
<!-- 5022703648&#45;&gt;5022702944 -->
<g id="edge10" class="edge" data-name="5022703648-&gt;5022702944">

<path fill="none" stroke="black" d="M184.64,-144.05C182.7,-136.49 180.35,-127.37 178.16,-118.85" style=""/>
<polygon fill="black" stroke="black" points="181.57,-118.07 175.69,-109.25 174.79,-119.81 181.57,-118.07" style=""/>
</g>
<!-- 5022702976 -->
<g id="node12" class="node" pointer-events="visible" data-name="5022702976">

<ellipse fill="none" stroke="black" cx="243" cy="-90" rx="27" ry="18" style=""/>
<text text-anchor="middle" x="243" y="-85.8" font-family="Times,serif" font-size="14.00" style="">41</text>
</g>
<!-- 5022703648&#45;&gt;5022702976 -->
<g id="edge11" class="edge" data-name="5022703648-&gt;5022702976">

<path fill="none" stroke="black" d="M200.98,-145.46C207.77,-136.67 216.4,-125.48 224.08,-115.53" style=""/>
<polygon fill="black" stroke="black" points="226.79,-117.75 230.12,-107.69 221.25,-113.47 226.79,-117.75" style=""/>
</g>
<!-- 5022703040 -->
<g id="node13" class="node" pointer-events="visible" data-name="5022703040">

<ellipse fill="none" stroke="black" cx="315" cy="-90" rx="27" ry="18" style=""/>
<text text-anchor="middle" x="315" y="-85.8" font-family="Times,serif" font-size="14.00" style="">62</text>
</g>
<!-- 5022702880&#45;&gt;5022703040 -->
<g id="edge12" class="edge" data-name="5022702880-&gt;5022703040">

<path fill="none" stroke="black" d="M301.36,-144.05C303.3,-136.49 305.65,-127.37 307.84,-118.85" style=""/>
<polygon fill="black" stroke="black" points="311.21,-119.81 310.31,-109.25 304.43,-118.07 311.21,-119.81" style=""/>
</g>
</g>
</svg>