<?xml version="1.0" standalone="no"?>
<svg xmlns="http://www.w3.org/2000/svg" xmlns:xlink="http://www.w3.org/1999/xlink" width="278pt" height="260pt" viewBox="0.00 0.00 278 260">
<g id="graph0" class="graph" transform="translate(15.310206076140734,188.42024159501835) scale(0.6820739174396774)" data-name="G">

<polygon fill="white" stroke="none" points="-4,4 -4,-256 274,-256 274,4 -4,4"/>
<!-- a1 -->
<g id="node1" class="node" pointer-events="visible" data-name="a1">

<ellipse fill="none" stroke="black" cx="135" cy="-234" rx="27" ry="18"/>
<text text-anchor="middle" x="135" y="-229.8" font-family="Times,serif" font-size="14.00">4</text>
</g>
<!-- b1 -->
<g id="node2" class="node" pointer-events="visible" data-name="b1">

<ellipse fill="none" stroke="black" cx="99" cy="-162" rx="27" ry="18"/>
<text text-anchor="middle" x="99" y="-157.8" font-family="Times,serif" font-size="14.00">33</text>
</g>
<!-- a1&#45;&gt;b1 -->
<g id="edge1" class="edge" data-name="a1-&gt;b1">

<path fill="none" stroke="black" d="M126.65,-216.76C122.42,-208.55 117.19,-198.37 112.42,-189.09"/>
<polygon fill="black" stroke="black" points="115.68,-187.79 108,-180.49 109.46,-190.99 115.68,-187.79"/>
</g>
<!-- b2 -->
<g id="node3" class="node" pointer-events="visible" data-name="b2">

<ellipse fill="none" stroke="black" cx="171" cy="-162" rx="27" ry="18"/>
<text text-anchor="middle" x="171" y="-157.8" font-family="Times,serif" font-size="14.00">8</text>
</g>
<!-- a1&#45;&gt;b2 -->
<g id="edge2" class="edge" data-name="a1-&gt;b2">

<path fill="none" stroke="black" d="M143.35,-216.76C147.58,-208.55 152.81,-198.37 157.58,-189.09"/>
<polygon fill="black" stroke="black" points="160.54,-190.99 162,-180.49 154.32,-187.79 160.54,-190.99"/>
</g>
<!-- c1 -->
<g id="node4" class="node" pointer-events="visible" data-name="c1">

<ellipse fill="none" stroke="black" cx="27" cy="-90" rx="27" ry="18"/>
<text text-anchor="middle" x="27" y="-85.8" font-family="Times,serif" font-size="14.00">-4</text>
</g>
<!-- b1&#45;&gt;c1 -->
<g id="edge3" class="edge" data-name="b1-&gt;c1">

<path fill="none" stroke="black" d="M84.08,-146.5C74.23,-136.92 61.14,-124.19 49.97,-113.34"/>
<polygon fill="black" stroke="black" points="52.59,-111 42.98,-106.54 47.71,-116.02 52.59,-111"/>
</g>
<!-- c2 -->
<g id="node5" class="node" pointer-events="visible" data-name="c2">

<ellipse fill="none" stroke="black" cx="99" cy="-90" rx="27" ry="18"/>
<text text-anchor="middle" x="99" y="-85.8" font-family="Times,serif" font-size="14.00">24</text>
</g>
<!-- b1&#45;&gt;c2 -->
<g id="edge4" class="edge" data-name="b1-&gt;c2">

<path fill="none" stroke="black" d="M99,-143.7C99,-136.41 99,-127.73 99,-119.54"/>
<polygon fill="black" stroke="black" points="102.5,-119.62 99,-109.62 95.5,-119.62 102.5,-119.62"/>
</g>
<!-- b2&#45;&gt;c1 -->
<g id="node6" class="node" pointer-events="visible" data-name="c3" data-comment="b2-&gt;c1">

<ellipse fill="none" stroke="black" cx="171" cy="-90" rx="27" ry="18"/>
<text text-anchor="middle" x="171" y="-85.8" font-family="Times,serif" font-size="14.00">5</text>
</g>
<!-- b2&#45;&gt;c -->
<g id="edge5" class="edge" data-name="b2-&gt;c3" data-comment="b2-&gt;c">

<path fill="none" stroke="black" d="M171,-143.7C171,-136.41 171,-127.73 171,-119.54"/>
<polygon fill="black" stroke="black" points="174.5,-119.62 171,-109.62 167.5,-119.62 174.5,-119.62"/>
</g>
<!-- d -->
<g id="node7" class="node" pointer-events="visible" data-name="d1" data-comment="d">

<ellipse fill="none" stroke="black" cx="27" cy="-18" rx="27" ry="18"/>
<text text-anchor="middle" x="27" y="-13.8" font-family="Times,serif" font-size="14.00">8</text>
</g>
<!-- c2&#45;&gt;d -->
<g id="edge6" class="edge" data-name="c2-&gt;d1" data-comment="c2-&gt;d">

<path fill="none" stroke="black" d="M84.08,-74.5C74.23,-64.92 61.14,-52.19 49.97,-41.34"/>
<polygon fill="black" stroke="black" points="52.59,-39 42.98,-34.54 47.71,-44.02 52.59,-39"/>
</g>
<!-- d -->
<g id="node8" class="node" pointer-events="visible" data-name="d2" data-comment="d">

<ellipse fill="none" stroke="black" cx="99" cy="-18" rx="27" ry="18"/>
<text text-anchor="middle" x="99" y="-13.8" font-family="Times,serif" font-size="14.00">33</text>
</g>
<!-- c2&#45;&gt;d -->
<g id="edge7" class="edge" data-name="c2-&gt;d2" data-comment="c2-&gt;d">

<path fill="none" stroke="black" d="M99,-71.7C99,-64.41 99,-55.73 99,-47.54"/>
<polygon fill="black" stroke="black" points="102.5,-47.62 99,-37.62 95.5,-47.62 102.5,-47.62"/>
</g>
<!-- _ -->
<g id="node9" class="node" pointer-events="visible" data-name="d3" data-comment="_">

<ellipse fill="none" stroke="black" cx="171" cy="-18" rx="27" ry="18"/>
<text text-anchor="middle" x="171" y="-13.8" font-family="Times,serif" font-size="14.00">1</text>
</g>
<!-- c3&#45;&gt;d -->
<g id="edge8" class="edge" data-name="c3-&gt;d3" data-comment="c3-&gt;d">

<path fill="none" stroke="black" d="M171,-71.7C171,-64.41 171,-55.73 171,-47.54"/>
<polygon fill="black" stroke="black" points="174.5,-47.62 171,-37.62 167.5,-47.62 174.5,-47.62"/>
</g>
<!-- d4 -->
<g id="node10" class="node" pointer-events="visible" data-name="d4">

<ellipse fill="none" stroke="black" cx="243" cy="-18" rx="27" ry="18"/>
<text text-anchor="middle" x="243" y="-13.8" font-family="Times,serif" font-size="14.00">2</text>
</g>
<!-- c3&#45;&gt;d4 -->
<g id="edge9" class="edge" data-name="c3-&gt;d4">

<path fill="none" stroke="black" d="M185.92,-74.5C195.77,-64.92 208.86,-52.19 220.03,-41.34"/>
<polygon fill="black" stroke="black" points="222.29,-44.02 227.02,-34.54 217.41,-39 222.29,-44.02"/>
</g>
</g>
</svg>