<?xml version="1.0" standalone="no"?>
<svg xmlns="http://www.w3.org/2000/svg" xmlns:xlink="http://www.w3.org/1999/xlink" width="278pt" height="260pt" viewBox="0.00 0.00 278.00 260.00">
<g id="graph0" class="graph" transform="translate(4,256) scale(1)" data-name="G">

<polygon fill="white" stroke="none" points="-4,4 -4,-256 274,-256 274,4 -4,4"/>
<!-- 5249196256 -->
<g id="node1" class="node" pointer-events="visible" data-name="5249196256">

<ellipse fill="none" stroke="black" cx="135" cy="-234" rx="27" ry="18"/>
<text text-anchor="middle" x="135" y="-229.8" font-family="Times,serif" font-size="14.00">4</text>
</g>
<!-- 5249196096 -->
<g id="node2" class="node" pointer-events="visible" data-name="5249196096">

<ellipse fill="none" stroke="black" cx="99" cy="-162" rx="27" ry="18"/>
<text text-anchor="middle" x="99" y="-157.8" font-family="Times,serif" font-size="14.00">33</text>
</g>
<!-- 5249196256&#45;&gt;5249196096 -->
<g id="edge1" class="edge" data-name="5249196256-&gt;5249196096">

<path fill="none" stroke="black" d="M126.65,-216.76C122.42,-208.55 117.19,-198.37 112.42,-189.09"/>
<polygon fill="black" stroke="black" points="115.68,-187.79 108,-180.49 109.46,-190.99 115.68,-187.79"/>
</g>
<!-- 5249196128 -->
<g id="node3" class="node" pointer-events="visible" data-name="5249196128">

<ellipse fill="none" stroke="black" cx="171" cy="-162" rx="27" ry="18"/>
<text text-anchor="middle" x="171" y="-157.8" font-family="Times,serif" font-size="14.00">8</text>
</g>
<!-- 5249196256&#45;&gt;5249196128 -->
<g id="edge2" class="edge" data-name="5249196256-&gt;5249196128">

<path fill="none" stroke="black" d="M143.35,-216.76C147.58,-208.55 152.81,-198.37 157.58,-189.09"/>
<polygon fill="black" stroke="black" points="160.54,-190.99 162,-180.49 154.32,-187.79 160.54,-190.99"/>
</g>
<!-- 5249195968 -->
<g id="node4" class="node" pointer-events="visible" data-name="5249195968">

<ellipse fill="none" stroke="black" cx="27" cy="-90" rx="27" ry="18"/>
<text text-anchor="middle" x="27" y="-85.8" font-family="Times,serif" font-size="14.00">-4</text>
</g>
<!-- 5249196096&#45;&gt;5249195968 -->
<g id="edge3" class="edge" data-name="5249196096-&gt;5249195968">

<path fill="none" stroke="black" d="M84.08,-146.5C74.23,-136.92 61.14,-124.19 49.97,-113.34"/>
<polygon fill="black" stroke="black" points="52.59,-111 42.98,-106.54 47.71,-116.02 52.59,-111"/>
</g>
<!-- 5249196000 -->
<g id="node5" class="node" pointer-events="visible" data-name="5249196000">

<ellipse fill="none" stroke="black" cx="99" cy="-90" rx="27" ry="18"/>
<text text-anchor="middle" x="99" y="-85.8" font-family="Times,serif" font-size="14.00">24</text>
</g>
<!-- 5249196096&#45;&gt;5249196000 -->
<g id="edge4" class="edge" data-name="5249196096-&gt;5249196000">

<path fill="none" stroke="black" d="M99,-143.7C99,-136.41 99,-127.73 99,-119.54"/>
<polygon fill="black" stroke="black" points="102.5,-119.62 99,-109.62 95.5,-119.62 102.5,-119.62"/>
</g>
<!-- 5249195296 -->
<g id="node8" class="node" pointer-events="visible" data-name="5249195296">

<ellipse fill="none" stroke="black" cx="171" cy="-90" rx="27" ry="18"/>
<text text-anchor="middle" x="171" y="-85.8" font-family="Times,serif" font-size="14.00">5</text>
</g>
<!-- 5249196128&#45;&gt;5249195296 -->
<g id="edge7" class="edge" data-name="5249196128-&gt;5249195296">

<path fill="none" stroke="black" d="M171,-143.7C171,-136.41 171,-127.73 171,-119.54"/>
<polygon fill="black" stroke="black" points="174.5,-119.62 171,-109.62 167.5,-119.62 174.5,-119.62"/>
</g>
<!-- 5249195328 -->
<g id="node6" class="node" pointer-events="visible" data-name="5249195328">

<ellipse fill="none" stroke="black" cx="27" cy="-18" rx="27" ry="18"/>
<text text-anchor="middle" x="27" y="-13.8" font-family="Times,serif" font-size="14.00">8</text>
</g>
<!-- 5249196000&#45;&gt;5249195328 -->
<g id="edge5" class="edge" data-name="5249196000-&gt;5249195328">

<path fill="none" stroke="black" d="M84.08,-74.5C74.23,-64.92 61.14,-52.19 49.97,-41.34"/>
<polygon fill="black" stroke="black" points="52.59,-39 42.98,-34.54 47.71,-44.02 52.59,-39"/>
</g>
<!-- 5249195360 -->
<g id="node7" class="node" pointer-events="visible" data-name="5249195360">

<ellipse fill="none" stroke="black" cx="99" cy="-18" rx="27" ry="18"/>
<text text-anchor="middle" x="99" y="-13.8" font-family="Times,serif" font-size="14.00">33</text>
</g>
<!-- 5249196000&#45;&gt;5249195360 -->
<g id="edge6" class="edge" data-name="5249196000-&gt;5249195360">

<path fill="none" stroke="black" d="M99,-71.7C99,-64.41 99,-55.73 99,-47.54"/>
<polygon fill="black" stroke="black" points="102.5,-47.62 99,-37.62 95.5,-47.62 102.5,-47.62"/>
</g>
<!-- 5249195392 -->
<g id="node9" class="node" pointer-events="visible" data-name="5249195392">

<ellipse fill="none" stroke="black" cx="171" cy="-18" rx="27" ry="18"/>
<text text-anchor="middle" x="171" y="-13.8" font-family="Times,serif" font-size="14.00">1</text>
</g>
<!-- 5249195296&#45;&gt;5249195392 -->
<g id="edge8" class="edge" data-name="5249195296-&gt;5249195392">

<path fill="none" stroke="black" d="M171,-71.7C171,-64.41 171,-55.73 171,-47.54"/>
<polygon fill="black" stroke="black" points="174.5,-47.62 171,-37.62 167.5,-47.62 174.5,-47.62"/>
</g>
<!-- 5249195424 -->
<g id="node10" class="node" pointer-events="visible" data-name="5249195424">

<ellipse fill="none" stroke="black" cx="243" cy="-18" rx="27" ry="18"/>
<text text-anchor="middle" x="243" y="-13.8" font-family="Times,serif" font-size="14.00">2</text>
</g>
<!-- 5249195296&#45;&gt;5249195424 -->
<g id="edge9" class="edge" data-name="5249195296-&gt;5249195424">

<path fill="none" stroke="black" d="M185.92,-74.5C195.77,-64.92 208.86,-52.19 220.03,-41.34"/>
<polygon fill="black" stroke="black" points="222.29,-44.02 227.02,-34.54 217.41,-39 222.29,-44.02"/>
</g>
</g>
</svg>