<?xml version="1.0" standalone="no"?>
<svg xmlns="http://www.w3.org/2000/svg" xmlns:xlink="http://www.w3.org/1999/xlink" width="167pt" height="188pt" viewBox="0.00 0.00 166.7 188">
<g id="graph0" class="graph" transform="translate(4, 184)">
<title style="opacity: 0.4268;">G</title>
<path fill="white" stroke="none" d="M162.6999969482422,-90L162.6999969482422,-89L162.6999969482422,-88L162.6999969482422,-87L162.6999969482422,-86L162.6999969482422,-85L162.6999969482422,-84L162.6999969482422,-83L162.6999969482422,-82L162.6999969482422,-81L162.6999969482422,-80L162.6999969482422,-79L162.6999969482422,-78L162.6999969482422,-77L162.6999969482422,-76L162.6999969482422,-75L162.6999969482422,-74L162.6999969482422,-73L162.6999969482422,-72L162.6999969482422,-71L162.6999969482422,-70L162.6999969482422,-69L162.6999969482422,-68L162.6999969482422,-67L162.6999969482422,-66L162.6999969482422,-65L162.6999969482422,-64L162.6999969482422,-63L162.6999969482422,-62L162.6999969482422,-61L162.6999969482422,-60L162.6999969482422,-59L162.6999969482422,-58.00000000000001L162.6999969482422,-57.00000000000001L162.6999969482422,-56L162.6999969482422,-55L162.6999969482422,-54L162.6999969482422,-53L162.6999969482422,-52L162.6999969482422,-51L162.6999969482422,-50L162.6999969482422,-49L162.6999969482422,-48L162.6999969482422,-47L162.6999969482422,-46L162.6999969482422,-45L162.6999969482422,-44L162.6999969482422,-43L162.6999969482422,-42L162.6999969482422,-41L162.6999969482422,-40L162.6999969482422,-39L162.6999969482422,-38L162.6999969482422,-37L162.6999969482422,-36L162.6999969482422,-35L162.6999969482422,-34L162.6999969482422,-33L162.6999969482422,-32L162.6999969482422,-31L162.6999969482422,-30L162.6999969482422,-29.000000000000004L162.6999969482422,-28L162.6999969482422,-27L162.6999969482422,-26L162.6999969482422,-25L162.6999969482422,-24L162.6999969482422,-23L162.6999969482422,-22L162.6999969482422,-21L162.6999969482422,-20L162.6999969482422,-19L162.6999969482422,-18L162.6999969482422,-17L162.6999969482422,-16L162.6999969482422,-15L162.6999969482422,-14L162.6999969482422,-13L162.6999969482422,-12L162.6999969482422,-11L162.6999969482422,-10L162.6999969482422,-9L162.6999969482422,-8L162.6999969482422,-7L162.6999969482422,-6L162.6999969482422,-5L162.6999969482422,-4L162.6999969482422,-3L162.6999969482422,-2L162.6999969482422,-1L162.6999969482422,0L162.6999969482422,1L162.6999969482422,2L162.6999969482422,3L162.6999969482422,4L161.70001220703125,4.000014305114746L160.70001220703125,4.000014305114746L159.70001220703125,4.000014305114746L158.70001220703125,4.000014305114746L157.70001220703125,4.000014305114746L156.70001220703125,4.000013828277588L155.70001220703125,4.000013828277588L154.70001220703125,4.000013828277588L153.70001220703125,4.000013828277588L152.70001220703125,4.000013828277588L151.70001220703125,4.000013828277588L150.70001220703125,4.00001335144043L149.70001220703125,4.00001335144043L148.70001220703125,4.00001335144043L147.70001220703125,4.00001335144043L146.70001220703125,4.00001335144043L145.70001220703125,4.0000128746032715L144.70001220703125,4.0000128746032715L143.70001220703125,4.0000128746032715L142.70001220703125,4.0000128746032715L141.70001220703125,4.0000128746032715L140.70001220703125,4.0000128746032715L139.70001220703125,4.000012397766113L138.70001220703125,4.000012397766113L137.70001220703125,4.000012397766113L136.70001220703125,4.000012397766113L135.70001220703125,4.000012397766113L134.70001220703125,4.000011920928955L133.70001220703125,4.000011920928955L132.70001220703125,4.000011920928955L131.70001220703125,4.000011920928955L130.70001220703125,4.000011920928955L129.70001220703125,4.000011920928955L128.70001220703125,4.000011444091797L127.70001220703125,4.000011444091797L126.70001220703126,4.000011444091797L125.70001220703125,4.000011444091797L124.70001220703125,4.000011444091797L123.70001220703125,4.000010967254639L122.70001220703125,4.000010967254639L121.70001220703125,4.000010967254639L120.70001220703125,4.000010967254639L119.70001220703125,4.000010967254639L118.70001220703125,4.0000104904174805L117.70001220703126,4.0000104904174805L116.70001220703125,4.0000104904174805L115.70001220703126,4.0000104904174805L114.70001220703125,4.0000104904174805L113.70001220703125,4.0000104904174805L112.70001220703125,4.000010013580322L111.70001220703125,4.000010013580322L110.70001220703125,4.000010013580322L109.70001220703125,4.000010013580322L108.70001220703125,4.000010013580322L107.70001220703125,4.000009536743164L106.70001220703125,4.000009536743164L105.70001220703125,4.000009536743164L104.70001220703125,4.000009536743164L103.70001220703125,4.000009536743164L102.70001220703125,4.000009536743164L101.70001220703125,4.000009059906006L100.70001220703125,4.000009059906006L99.70001220703125,4.000009059906006L98.70001220703125,4.000009059906006L97.70001220703125,4.000009059906006L96.70001220703125,4.000008583068848L95.70001220703125,4.000008583068848L94.70001220703125,4.000008583068848L93.70001220703125,4.000008583068848L92.70001220703125,4.000008583068848L91.70001220703125,4.000008583068848L90.70001220703125,4.0000081062316895L89.70001220703125,4.0000081062316895L88.70001220703125,4.0000081062316895L87.70001220703125,4.0000081062316895L86.70001220703125,4.0000081062316895L85.70001220703125,4.000007629394531L84.70001220703125,4.000007629394531L83.70001220703125,4.000007629394531L82.70001220703125,4.000007629394531L81.70001220703125,4.000007629394531L80.70001220703125,4.000007629394531L79.70001220703125,4.000007152557373L78.70001220703125,4.000007152557373L77.70001220703125,4.000007152557373L76.70001220703125,4.000007152557373L75.70001220703125,4.000007152557373L74.70001220703125,4.000006675720215L73.70001220703125,4.000006675720215L72.70001220703125,4.000006675720215L71.70001220703125,4.000006675720215L70.70001220703125,4.000006675720215L69.70001220703125,4.000006675720215L68.70001220703125,4.000006198883057L67.70001220703125,4.000006198883057L66.70001220703125,4.000006198883057L65.70001220703125,4.000006198883057L64.70001220703125,4.000006198883057L63.70001220703125,4.000005722045898L62.70001220703125,4.000005722045898L61.70001220703125,4.000005722045898L60.70001220703126,4.000005722045898L59.70001220703126,4.000005722045898L58.70001220703126,4.00000524520874L57.70001220703125,4.00000524520874L56.70001220703125,4.00000524520874L55.70001220703125,4.00000524520874L54.70001220703125,4.00000524520874L53.70001220703125,4.00000524520874L52.70001220703125,4.000004768371582L51.70001220703125,4.000004768371582L50.70001220703125,4.000004768371582L49.70001220703125,4.000004768371582L48.70001220703125,4.000004768371582L47.70001220703125,4.000004291534424L46.70001220703125,4.000004291534424L45.70001220703125,4.000004291534424L44.70001220703125,4.000004291534424L43.70001220703125,4.000004291534424L42.70001220703125,4.000004291534424L41.70001220703125,4.000003814697266L40.70001220703125,4.000003814697266L39.70001220703125,4.000003814697266L38.70001220703125,4.000003814697266L37.70001220703125,4.000003814697266L36.70001220703125,4.000003337860107L35.70001220703125,4.000003337860107L34.70001220703125,4.000003337860107L33.70001220703125,4.000003337860107L32.70001220703125,4.000003337860107L31.70001220703125,4.000003337860107L30.700012207031254,4.000002861022949L29.70001220703125,4.000002861022949L28.70001220703125,4.000002861022949L27.70001220703125,4.000002861022949L26.70001220703125,4.000002861022949L25.70001220703125,4.000002384185791L24.70001220703125,4.000002384185791L23.70001220703125,4.000002384185791L22.70001220703125,4.000002384185791L21.70001220703125,4.000002384185791L20.70001220703125,4.000002384185791L19.70001220703125,4.000001907348633L18.70001220703125,4.000001907348633L17.70001220703125,4.000001907348633L16.70001220703125,4.000001907348633L15.70001220703125,4.000001907348633L14.70001220703125,4.000001430511475L13.70001220703125,4.000001430511475L12.70001220703125,4.000001430511475L11.70001220703125,4.000001430511475L10.70001220703125,4.000001430511475L9.70001220703125,4.000001430511475L8.70001220703125,4.000000953674316L7.70001220703125,4.000000953674316L6.70001220703125,4.000000953674316L5.70001220703125,4.000000953674316L4.70001220703125,4.000000953674316L3.70001220703125,4.000000476837158L2.70001220703125,4.000000476837158L1.70001220703125,4.000000476837158L0.70001220703125,4.000000476837158L-0.29998779296875,4.000000476837158L-1.29998779296875,4L-2.29998779296875,4L-3.29998779296875,4L-3.9999918937683105,3.70001220703125L-3.9999918937683105,2.70001220703125L-3.9999918937683105,1.70001220703125L-3.9999918937683105,0.70001220703125L-3.9999918937683105,-0.29998779296875L-3.9999921321868896,-1.29998779296875L-3.9999921321868896,-2.29998779296875L-3.9999921321868896,-3.29998779296875L-3.9999921321868896,-4.29998779296875L-3.9999921321868896,-5.29998779296875L-3.9999921321868896,-6.29998779296875L-3.9999923706054688,-7.29998779296875L-3.9999923706054688,-8.29998779296875L-3.9999923706054688,-9.29998779296875L-3.9999923706054688,-10.29998779296875L-3.9999923706054688,-11.29998779296875L-3.9999926090240483,-12.29998779296875L-3.9999926090240483,-13.29998779296875L-3.9999926090240483,-14.29998779296875L-3.9999926090240483,-15.29998779296875L-3.9999926090240483,-16.29998779296875L-3.9999926090240483,-17.29998779296875L-3.999992847442627,-18.29998779296875L-3.999992847442627,-19.29998779296875L-3.999992847442627,-20.29998779296875L-3.999992847442627,-21.29998779296875L-3.999992847442627,-22.29998779296875L-3.999993085861206,-23.29998779296875L-3.999993085861206,-24.29998779296875L-3.999993085861206,-25.29998779296875L-3.999993085861206,-26.29998779296875L-3.999993085861206,-27.29998779296875L-3.999993085861206,-28.29998779296875L-3.999993324279785,-29.29998779296875L-3.999993324279785,-30.29998779296875L-3.999993324279785,-31.299987792968754L-3.999993324279785,-32.29998779296875L-3.999993324279785,-33.29998779296875L-3.9999935626983643,-34.29998779296875L-3.9999935626983643,-35.29998779296875L-3.9999935626983643,-36.29998779296875L-3.9999935626983643,-37.29998779296875L-3.9999935626983643,-38.29998779296875L-3.9999935626983643,-39.29998779296875L-3.999993801116944,-40.29998779296875L-3.999993801116944,-41.29998779296875L-3.999993801116944,-42.29998779296875L-3.999993801116944,-43.29998779296875L-3.999993801116944,-44.29998779296875L-3.9999940395355225,-45.29998779296875L-3.9999940395355225,-46.29998779296875L-3.9999940395355225,-47.29998779296875L-3.9999940395355225,-48.29998779296875L-3.9999940395355225,-49.29998779296875L-3.9999940395355225,-50.29998779296875L-3.9999942779541016,-51.29998779296875L-3.9999942779541016,-52.29998779296875L-3.9999942779541016,-53.29998779296875L-3.9999942779541016,-54.29998779296875L-3.9999942779541016,-55.29998779296875L-3.9999945163726807,-56.29998779296876L-3.9999945163726807,-57.29998779296875L-3.9999945163726807,-58.29998779296875L-3.9999945163726807,-59.29998779296875L-3.9999945163726807,-60.29998779296875L-3.9999947547912598,-61.29998779296875L-3.9999947547912598,-62.29998779296875L-3.9999947547912598,-63.29998779296875L-3.9999947547912598,-64.29998779296875L-3.9999947547912598,-65.29998779296875L-3.9999947547912598,-66.29998779296875L-3.9999949932098393,-67.29998779296875L-3.9999949932098393,-68.29998779296875L-3.9999949932098393,-69.29998779296875L-3.9999949932098393,-70.29998779296875L-3.9999949932098393,-71.29998779296875L-3.999995231628418,-72.29998779296875L-3.999995231628418,-73.29998779296875L-3.999995231628418,-74.29998779296875L-3.999995231628418,-75.29998779296875L-3.999995231628418,-76.29998779296875L-3.999995231628418,-77.29998779296875L-3.999995470046997,-78.29998779296875L-3.999995470046997,-79.29998779296875L-3.999995470046997,-80.29998779296875L-3.999995470046997,-81.29998779296875L-3.999995470046997,-82.29998779296875L-3.999995708465576,-83.29998779296875L-3.999995708465576,-84.29998779296875L-3.999995708465576,-85.29998779296875L-3.999995708465576,-86.29998779296875L-3.999995708465576,-87.29998779296875L-3.999995708465576,-88.29998779296875L-3.9999959468841557,-89.29998779296875L-3.9999959468841557,-90.29998779296875L-3.9999959468841557,-91.29998779296875L-3.9999959468841557,-92.29998779296875L-3.9999959468841557,-93.29998779296875L-3.9999961853027344,-94.29998779296875L-3.9999961853027344,-95.29998779296875L-3.9999961853027344,-96.29998779296875L-3.9999961853027344,-97.29998779296875L-3.9999961853027344,-98.29998779296875L-3.9999961853027344,-99.29998779296875L-3.9999964237213135,-100.29998779296875L-3.9999964237213135,-101.29998779296875L-3.9999964237213135,-102.29998779296875L-3.9999964237213135,-103.29998779296875L-3.9999964237213135,-104.29998779296875L-3.9999966621398926,-105.29998779296875L-3.9999966621398926,-106.29998779296875L-3.9999966621398926,-107.29998779296875L-3.9999966621398926,-108.29998779296875L-3.9999966621398926,-109.29998779296875L-3.9999966621398926,-110.29998779296875L-3.9999969005584717,-111.29998779296875L-3.9999969005584717,-112.29998779296876L-3.9999969005584717,-113.29998779296875L-3.9999969005584717,-114.29998779296876L-3.9999969005584717,-115.29998779296875L-3.9999971389770512,-116.29998779296875L-3.9999971389770512,-117.29998779296875L-3.9999971389770512,-118.29998779296875L-3.9999971389770512,-119.29998779296875L-3.9999971389770512,-120.29998779296875L-3.99999737739563,-121.29998779296876L-3.99999737739563,-122.29998779296875L-3.99999737739563,-123.29998779296876L-3.99999737739563,-124.29998779296875L-3.99999737739563,-125.29998779296876L-3.99999737739563,-126.29998779296875L-3.999997615814209,-127.29998779296875L-3.999997615814209,-128.29998779296875L-3.999997615814209,-129.29998779296875L-3.999997615814209,-130.29998779296875L-3.999997615814209,-131.29998779296875L-3.999997854232788,-132.29998779296875L-3.999997854232788,-133.29998779296875L-3.999997854232788,-134.29998779296875L-3.999997854232788,-135.29998779296875L-3.999997854232788,-136.29998779296875L-3.999997854232788,-137.29998779296875L-3.9999980926513676,-138.29998779296875L-3.9999980926513676,-139.29998779296875L-3.9999980926513676,-140.29998779296875L-3.9999980926513676,-141.29998779296875L-3.9999980926513676,-142.29998779296875L-3.9999983310699467,-143.29998779296875L-3.9999983310699467,-144.29998779296875L-3.9999983310699467,-145.29998779296875L-3.9999983310699467,-146.29998779296875L-3.9999983310699467,-147.29998779296875L-3.9999983310699467,-148.29998779296875L-3.9999985694885254,-149.29998779296875L-3.9999985694885254,-150.29998779296875L-3.9999985694885254,-151.29998779296875L-3.9999985694885254,-152.29998779296875L-3.9999985694885254,-153.29998779296875L-3.9999988079071045,-154.29998779296875L-3.9999988079071045,-155.29998779296875L-3.9999988079071045,-156.29998779296875L-3.9999988079071045,-157.29998779296875L-3.9999988079071045,-158.29998779296875L-3.9999988079071045,-159.29998779296875L-3.9999990463256836,-160.29998779296875L-3.9999990463256836,-161.29998779296875L-3.9999990463256836,-162.29998779296875L-3.9999990463256836,-163.29998779296875L-3.9999990463256836,-164.29998779296875L-3.999999284744263,-165.29998779296875L-3.999999284744263,-166.29998779296875L-3.999999284744263,-167.29998779296875L-3.999999284744263,-168.29998779296875L-3.999999284744263,-169.29998779296875L-3.999999284744263,-170.29998779296875L-3.999999523162842,-171.29998779296875L-3.999999523162842,-172.29998779296875L-3.999999523162842,-173.29998779296875L-3.999999523162842,-174.29998779296875L-3.999999523162842,-175.29998779296875L-3.999999761581421,-176.29998779296875L-3.999999761581421,-177.29998779296875L-3.999999761581421,-178.29998779296875L-3.999999761581421,-179.29998779296875L-3.999999761581421,-180.29998779296875L-4,-181.29998779296875L-4,-182.29998779296875L-4,-183.29998779296875L-3.7000274658203125,-184L-2.7000274658203125,-184L-1.7000274658203125,-184L-0.7000274658203125,-184L0.2999725341796875,-184L1.2999725341796875,-184L2.2999725341796875,-184L3.2999725341796875,-184L4.2999725341796875,-184L5.2999725341796875,-184L6.2999725341796875,-184L7.2999725341796875,-184L8.299972534179688,-184L9.299972534179688,-184L10.299972534179688,-184L11.299972534179688,-184L12.299972534179688,-184L13.299972534179688,-184L14.299972534179688,-184L15.299972534179688,-184L16.299972534179688,-184L17.299972534179688,-184L18.299972534179688,-184L19.299972534179688,-184L20.299972534179688,-184L21.299972534179688,-184L22.299972534179688,-184L23.299972534179688,-184L24.299972534179688,-184L25.299972534179688,-184L26.299972534179688,-184L27.299972534179688,-184L28.299972534179688,-184L29.299972534179688,-184L30.29997253417969,-184L31.299972534179688,-184L32.29997253417969,-184L33.29997253417969,-184L34.29997253417969,-184L35.29997253417969,-184L36.29997253417969,-184L37.29997253417969,-184L38.29997253417969,-184L39.29997253417969,-184L40.29997253417969,-184L41.29997253417969,-184L42.29997253417969,-184L43.29997253417969,-184L44.29997253417969,-184L45.29997253417969,-184L46.29997253417969,-184L47.29997253417969,-184L48.29997253417969,-184L49.29997253417969,-184L50.29997253417969,-184L51.29997253417969,-184L52.29997253417969,-184L53.29997253417969,-184L54.29997253417969,-184L55.29997253417969,-184L56.29997253417969,-184L57.29997253417969,-184L58.29997253417969,-184L59.29997253417969,-184L60.29997253417969,-184L61.29997253417969,-184L62.29997253417969,-184L63.299972534179695,-184L64.29997253417969,-184L65.29997253417969,-184L66.29997253417969,-184L67.29997253417969,-184L68.29997253417969,-184L69.29997253417969,-184L70.29997253417969,-184L71.29997253417969,-184L72.29997253417969,-184L73.29997253417969,-184L74.29997253417969,-184L75.29997253417969,-184L76.29997253417969,-184L77.29997253417969,-184L78.29997253417969,-184L79.29997253417969,-184L80.29997253417969,-184L81.29997253417969,-184L82.29997253417969,-184L83.29997253417969,-184L84.29997253417969,-184L85.29997253417969,-184L86.29997253417969,-184L87.29997253417969,-184L88.29997253417969,-184L89.29997253417969,-184L90.29997253417969,-184L91.29997253417969,-184L92.29997253417969,-184L93.29997253417969,-184L94.29997253417969,-184L95.29997253417969,-184L96.29997253417969,-184L97.29997253417969,-184L98.29997253417969,-184L99.29997253417969,-184L100.29997253417969,-184L101.29997253417969,-184L102.29997253417969,-184L103.29997253417969,-184L104.29997253417969,-184L105.29997253417969,-184L106.29997253417969,-184L107.29997253417969,-184L108.29997253417969,-184L109.29997253417969,-184L110.29997253417969,-184L111.29997253417969,-184L112.29997253417969,-184L113.2999725341797,-184L114.29997253417969,-184L115.29997253417969,-184L116.29997253417969,-184L117.29997253417969,-184L118.29997253417969,-184L119.29997253417969,-184L120.2999725341797,-184L121.29997253417969,-184L122.2999725341797,-184L123.29997253417969,-184L124.2999725341797,-184L125.29997253417969,-184L126.29997253417969,-184L127.29997253417969,-184L128.2999725341797,-184L129.2999725341797,-184L130.2999725341797,-184L131.2999725341797,-184L132.2999725341797,-184L133.2999725341797,-184L134.2999725341797,-184L135.2999725341797,-184L136.2999725341797,-184L137.2999725341797,-184L138.2999725341797,-184L139.2999725341797,-184L140.2999725341797,-184L141.2999725341797,-184L142.2999725341797,-184L143.2999725341797,-184L144.2999725341797,-184L145.2999725341797,-184L146.2999725341797,-184L147.2999725341797,-184L148.2999725341797,-184L149.2999725341797,-184L150.2999725341797,-184L151.2999725341797,-184L152.2999725341797,-184L153.2999725341797,-184L154.2999725341797,-184L155.2999725341797,-184L156.2999725341797,-184L157.2999725341797,-184L158.2999725341797,-184L159.2999725341797,-184L160.2999725341797,-184L161.2999725341797,-184L162.2999725341797,-184L162.6999969482422,-183.4000244140625L162.6999969482422,-182.4000244140625L162.6999969482422,-181.4000244140625L162.6999969482422,-180.4000244140625L162.6999969482422,-179.4000244140625L162.6999969482422,-178.4000244140625L162.6999969482422,-177.4000244140625L162.6999969482422,-176.4000244140625L162.6999969482422,-175.4000244140625L162.6999969482422,-174.4000244140625L162.6999969482422,-173.4000244140625L162.6999969482422,-172.4000244140625L162.6999969482422,-171.4000244140625L162.6999969482422,-170.4000244140625L162.6999969482422,-169.4000244140625L162.6999969482422,-168.4000244140625L162.6999969482422,-167.4000244140625L162.6999969482422,-166.4000244140625L162.6999969482422,-165.4000244140625L162.6999969482422,-164.4000244140625L162.6999969482422,-163.4000244140625L162.6999969482422,-162.4000244140625L162.6999969482422,-161.4000244140625L162.6999969482422,-160.4000244140625L162.6999969482422,-159.4000244140625L162.6999969482422,-158.4000244140625L162.6999969482422,-157.4000244140625L162.6999969482422,-156.4000244140625L162.6999969482422,-155.4000244140625L162.6999969482422,-154.4000244140625L162.6999969482422,-153.4000244140625L162.6999969482422,-152.4000244140625L162.6999969482422,-151.4000244140625L162.6999969482422,-150.4000244140625L162.6999969482422,-149.4000244140625L162.6999969482422,-148.4000244140625L162.6999969482422,-147.4000244140625L162.6999969482422,-146.4000244140625L162.6999969482422,-145.4000244140625L162.6999969482422,-144.4000244140625L162.6999969482422,-143.4000244140625L162.6999969482422,-142.4000244140625L162.6999969482422,-141.4000244140625L162.6999969482422,-140.4000244140625L162.6999969482422,-139.4000244140625L162.6999969482422,-138.4000244140625L162.6999969482422,-137.4000244140625L162.6999969482422,-136.4000244140625L162.6999969482422,-135.4000244140625L162.6999969482422,-134.4000244140625L162.6999969482422,-133.4000244140625L162.6999969482422,-132.4000244140625L162.6999969482422,-131.4000244140625L162.6999969482422,-130.4000244140625L162.6999969482422,-129.4000244140625L162.6999969482422,-128.4000244140625L162.6999969482422,-127.4000244140625L162.6999969482422,-126.4000244140625L162.6999969482422,-125.4000244140625L162.6999969482422,-124.4000244140625L162.6999969482422,-123.4000244140625L162.6999969482422,-122.4000244140625L162.6999969482422,-121.40002441406251L162.6999969482422,-120.4000244140625L162.6999969482422,-119.40002441406251L162.6999969482422,-118.4000244140625L162.6999969482422,-117.40002441406251L162.6999969482422,-116.4000244140625L162.6999969482422,-115.4000244140625L162.6999969482422,-114.4000244140625L162.6999969482422,-113.4000244140625L162.6999969482422,-112.4000244140625L162.6999969482422,-111.4000244140625L162.6999969482422,-110.4000244140625L162.6999969482422,-109.4000244140625L162.6999969482422,-108.4000244140625L162.6999969482422,-107.4000244140625L162.6999969482422,-106.4000244140625L162.6999969482422,-105.4000244140625L162.6999969482422,-104.4000244140625L162.6999969482422,-103.4000244140625L162.6999969482422,-102.4000244140625L162.6999969482422,-101.4000244140625L162.6999969482422,-100.4000244140625L162.6999969482422,-99.4000244140625L162.6999969482422,-98.4000244140625L162.6999969482422,-97.4000244140625L162.6999969482422,-96.4000244140625L162.6999969482422,-95.4000244140625L162.6999969482422,-94.4000244140625L162.6999969482422,-93.4000244140625L162.6999969482422,-92.4000244140625L162.6999969482422,-91.4000244140625L162.6999969482422,-90.4000244140625L162.6999969482422,-90"/>
<!-- 1 -->
<g id="node1" class="node">
<title style="opacity: 0.4268;">1</title>
<ellipse fill="none" stroke="black" cx="75.63" cy="-162" rx="31.34" ry="18"/>
<text text-anchor="middle" x="75.63" y="-157.8" font-family="Times,serif" font-size="14.00">Sofia</text>
</g>
<!-- 2 -->
<g id="node2" class="node">
<title style="opacity: 0.4268;">2</title>
<ellipse fill="none" stroke="black" cx="34.63" cy="-90" rx="34.75" ry="18"/>
<text text-anchor="middle" x="34.63" y="-85.8" font-family="Times,serif" font-size="14.00">Varna</text>
</g>
<!-- 1&#45;&gt;2 -->
<g id="edge1" class="edge">
<title style="opacity: 0.4268;">1-&gt;2</title>
<path fill="none" stroke="black" d="M61.04999923706055,-145.80999755859375L60.47473144531251,-144.99203491210938L59.90345764160156,-144.17127990722656L59.336009979248054,-143.34786987304688L58.77223205566406,-142.52194213867188L58.21199798583985,-141.693603515625L57.65517044067383,-140.8629913330078L57.10165405273438,-140.0301513671875L56.55134201049805,-139.1951904296875L56.004146575927734,-138.35818481445312L55.46000671386719,-137.51919555664062L54.91883087158203,-136.67828369140625L54.38056945800781,-135.83551025390625L53.84516906738281,-134.99090576171875L53.31258773803711,-134.14453125L52.78276824951172,-133.2964324951172L52.25569152832031,-132.4466094970703L51.73133087158203,-131.59510803222656L51.20969009399414,-130.741943359375L50.69077682495117,-129.8871307373047L50.17453384399414,-129.0306854248047L49.66096115112305,-128.17263793945312L49.15007781982422,-127.31298828125L48.64187240600586,-126.45175170898438L48.13637161254883,-125.58892822265625L47.63359069824219,-124.72451782226562L47.13356018066406,-123.85851287841797L46.636314392089844,-122.99090576171875L46.14189910888672,-122.1216812133789L45.65035629272461,-121.25082397460939L45.161739349365234,-120.37832641601562L44.67612838745117,-119.50415039062501L44.19357681274414,-118.62828063964844L43.970001220703125,-118.22000122070312"/>
<path fill="black" stroke="black" d="M45.00039291381836,-114.71499633789062L44.274192810058594,-114.02751159667969L43.54798889160156,-113.34003448486328L42.8217887878418,-112.65254974365234L42.09558868408203,-111.9650650024414L41.369384765625,-111.277587890625L40.643184661865234,-110.59010314941406L39.91698455810547,-109.90261840820312L39.51144790649414,-109.8371353149414L39.65022277832031,-110.82745361328125L39.78900146484375,-111.81777954101562L39.92778015136719,-112.80810546875L40.06655502319336,-113.79842376708986L40.2053337097168,-114.78874969482422L40.344112396240234,-115.7790756225586L40.48289108276367,-116.76939392089844L40.621665954589844,-117.75971984863281L40.76044464111328,-118.7500457763672L40.89922332763672,-119.74037170410156L41.621559143066406,-119.60310363769531L42.51020050048828,-119.14449310302734L43.398841857910156,-118.6858901977539L44.287479400634766,-118.22727966308594L45.17612075805664,-117.76867675781251L46.06475830078125,-117.31006622314455L46.953399658203125,-116.8514633178711L46.58446502685547,-116.21461486816406L45.8582649230957,-115.52713012695312L45.13206481933594,-114.83965301513672L45.00039291381836,-114.71499633789062"/>
</g>
<!-- 3 -->
<g id="node3" class="node">
<title style="opacity: 0.4268;">3</title>
<ellipse fill="none" stroke="black" cx="117.63" cy="-90" rx="30.2" ry="18"/>
<text text-anchor="middle" x="117.63" y="-85.8" font-family="Times,serif" font-size="14.00">Paris</text>
</g>
<!-- 1&#45;&gt;3 -->
<g id="edge3" class="edge">
<title style="opacity: 0.4268;">1-&gt;3</title>
<path fill="none" stroke="black" d="M80.08999633789062,-143.6999969482422L80.5377426147461,-142.80584716796875L80.99034881591797,-141.91412353515625L81.4475326538086,-141.02476501464844L81.90906524658203,-140.13763427734375L82.37468719482422,-139.25265502929688L82.84423828125,-138.3697509765625L83.31753540039062,-137.4888458251953L83.79447174072266,-136.6099090576172L84.27484130859375,-135.73284912109375L84.75851440429688,-134.85760498046875L85.24540710449219,-133.98414611816406L85.73539733886719,-133.11241149902344L86.22843170166016,-132.24240112304688L86.72443389892578,-131.37408447265625L87.22332000732422,-130.50741577148438L87.72505187988281,-129.64239501953125L88.22953796386719,-128.7789764404297L88.73675537109375,-127.91715240478517L89.24666595458984,-127.05693054199219L89.75923919677734,-126.19828796386719L90.27444458007812,-125.34121704101562L90.79226684570312,-124.48573303222656L91.31268310546875,-123.63182067871094L91.835693359375,-122.77949523925783L92.36137390136719,-121.9288101196289L92.88965606689453,-121.07974243164062L93.42053985595703,-120.23229980468751L93.95404052734375,-119.38650512695312L94.49018096923828,-118.54237365722656L95.02898406982422,-117.69994354248048L95.57048034667969,-116.85924530029297L96.11471557617188,-116.02031707763672L96.33000183105469,-115.69000244140625"/>
<path fill="black" stroke="black" d="M100.58999633789062,-112.56500244140626L100.85047912597656,-111.59952545166016L101.1109619140625,-110.63404846191406L101.37144470214844,-109.66856384277344L101.63191986083984,-108.70308685302734L101.89240264892578,-107.73760986328125L101.40436553955078,-107.8659439086914L100.59874725341797,-108.45836639404297L99.79312133789062,-109.05079650878906L98.98749542236328,-109.64321899414062L98.18186950683594,-110.23564910888672L97.37625122070312,-110.82807922363281L96.57062530517578,-111.42050170898438L95.76499938964844,-112.01293182373048L94.9593734741211,-112.60535430908203L94.15374755859375,-113.19778442382814L93.51390838623047,-113.78734588623047L94.33953094482422,-114.35157012939453L95.16515350341797,-114.91578674316406L95.99077606201172,-115.48001098632812L96.81639862060547,-116.04423522949219L97.64202117919922,-116.60845947265625L98.46764373779297,-117.17268371582031L99.23626708984375,-117.58262634277344L99.49674987792969,-116.61714935302734L99.75723266601562,-115.65167236328125L100.01770782470703,-114.68619537353516L100.27819061279297,-113.72071075439453L100.5386734008789,-112.75523376464844L100.58999633789062,-112.56500244140626"/>
</g>
<!-- 2&#45;&gt;1 -->
<g id="edge2" class="edge">
<title style="opacity: 0.4268;">2-&gt;1</title>
<path fill="none" stroke="black" d="M49.540000915527344,-106.66999816894531L50.113433837890625,-107.48925018310547L50.68292999267578,-108.31124114990234L51.2486457824707,-109.1358413696289L51.810726165771484,-109.96292114257812L52.36929702758789,-110.79237365722656L52.92448425292969,-111.62409973144531L53.47637939453125,-112.4580078125L54.025081634521484,-113.29402923583984L54.5706787109375,-114.13207244873047L55.113243103027344,-114.97209167480469L55.6528205871582,-115.81402587890625L56.18950271606446,-116.65780639648438L56.723331451416016,-117.5033950805664L57.25434875488282,-118.35076141357422L57.78259658813477,-119.1998519897461L58.308090209960945,-120.05064392089845L58.83086013793946,-120.90311431884766L59.3509407043457,-121.75723266601562L59.86832046508789,-122.61298370361328L60.38302993774414,-123.47035217285156L60.89506149291992,-124.32931518554688L61.40441131591797,-125.18988037109375L61.91107177734376,-126.0520248413086L62.41503143310547,-126.9157485961914L62.91625213623047,-127.78106689453125L63.41472244262695,-128.64797973632812L63.910404205322266,-129.5164794921875L64.40325927734375,-130.3865966796875L64.89323425292969,-131.25833129882812L65.38028717041016,-132.13169860839844L65.86433410644531,-133.00674438476562L66.12999725341797,-133.49000549316406"/>
<path fill="black" stroke="black" d="M69.96499633789062,-137.10499572753906L69.82437133789062,-136.11492919921875L69.6837387084961,-135.1248779296875L69.5431137084961,-134.1348114013672L69.4024887084961,-133.14474487304688L69.26185607910156,-132.15467834472656L68.59648132324219,-132.1833038330078L67.70872497558594,-132.6436309814453L66.82096862792969,-133.10394287109375L65.93321228027344,-133.5642547607422L65.04545593261719,-134.0245819091797L64.15770721435547,-134.48489379882812L63.269950866699226,-134.94520568847656L63.524200439453125,-135.56549072265625L64.2513198852539,-136.2519989013672L64.97843933105469,-136.9385223388672L65.70555114746094,-137.62503051757812L66.43267059326172,-138.31153869628906L67.1597900390625,-138.998046875L67.88690948486328,-139.6845703125L68.61402893066406,-140.37107849121094L69.34114074707031,-141.05758666992188L70.0682601928711,-141.74411010742188L70.69348907470703,-142.23374938964844L70.5528564453125,-141.24368286132812L70.4122314453125,-140.25363159179688L70.27159881591797,-139.26356506347656L70.13097381591797,-138.27349853515625L69.99034118652344,-137.28343200683594L69.96499633789062,-137.10499572753906"/>
</g>
<!-- 5 -->

<!-- 2&#45;&gt;5 -->

<g id="edge4" class="edge">
<title style="opacity: 0.4268;">3-&gt;1</title>
<path fill="none" stroke="black" d="M113.25,-108.12999725341797L112.80304718017578,-109.02455139160156L112.35118865966797,-109.91664123535156L111.89472198486328,-110.80638122558594L111.43389892578125,-111.6938705444336L110.96892547607422,-112.57919311523438L110.50000762939453,-113.46243286132812L110.02733612060547,-114.34366607666016L109.55106353759766,-115.22296142578125L109.07133483886719,-116.10037994384767L108.58826446533203,-116.97595977783205L108.10198974609375,-117.84976959228516L107.61258697509766,-118.7218246459961L107.12015533447266,-119.59217071533205L106.6247787475586,-120.46084594726562L106.12651824951172,-121.327880859375L105.62545013427734,-122.19329071044922L105.12162017822266,-123.05709075927734L104.61507415771484,-123.91929626464844L104.10585021972656,-124.7799301147461L103.59387969970703,-125.6389389038086L103.07929229736328,-126.49637603759766L102.56210327148438,-127.35224151611328L102.04234313964844,-128.20655822753906L101.5199966430664,-129.05929565429688L100.99508666992188,-129.9104461669922L100.46759033203125,-130.760009765625L99.93745422363281,-131.60791015625L99.40467071533203,-132.45416259765625L98.86929321289062,-133.2987823486328L98.33126068115234,-134.14170837402344L97.79056549072266,-134.98291015625L97.24716186523438,-135.8223876953125L96.76000213623047,-136.57000732421875"/>
<path fill="black" stroke="black" d="M98.2381820678711,-139.4499969482422L99.04458618164062,-138.85862731933594L99.78826904296875,-138.268310546875L98.962646484375,-137.70408630371094L98.13702392578125,-137.13986206054688L97.3114013671875,-136.5756378173828L96.48577880859375,-136.01141357421875L95.66015625,-135.4471893310547L94.83453369140625,-134.8829803466797L94.0301513671875,-134.3763427734375L93.7685546875,-135.34152221679688L93.50695037841797,-136.3066864013672L93.24535369873047,-137.27186584472656L92.98375701904297,-138.23704528808594L92.72215270996094,-139.2022247314453L92.46055603027344,-140.1674041748047L92.19895935058594,-141.132568359375L91.9373550415039,-142.09774780273438L91.6757583618164,-143.06292724609375L91.4141616821289,-144.02810668945312L91.63200378417969,-144.29452514648438L92.43840789794922,-143.70315551757812L93.24481201171875,-143.11180114746094L94.05122375488281,-142.5204315185547L94.85762786865234,-141.9290771484375L95.66403198242188,-141.33770751953125L96.4704360961914,-140.746337890625L97.27684020996094,-140.1549835205078L98.08324432373047,-139.56361389160156L98.2381820678711,-139.4499969482422"/>
</g><g id="node4" class="node">
<title style="opacity: 0.4268;">4</title>
<ellipse fill="none" stroke="black" cx="117.63" cy="-18" rx="41.16" ry="18"/>
<text text-anchor="middle" x="117.63" y="-13.8" font-family="Times,serif" font-size="14.00">London</text>
</g><!-- 3&#45;&gt;4 -->
<g id="edge5" class="edge">
<title style="opacity: 0.4268;">3-&gt;4</title>
<path fill="none" stroke="black" d="M111.75000000000001,-72.05000305175781L111.6487808227539,-71.05514526367188L111.55517578125,-70.05953216552734L111.4687728881836,-69.06327819824219L111.38916778564453,-68.06645202636719L111.3161392211914,-67.06912994384766L111.24945831298828,-66.07135772705078L111.188720703125,-65.07320404052734L111.13384246826172,-64.07471466064453L111.08465576171875,-63.075927734375L111.04084014892578,-62.07688903808594L111.0025634765625,-61.07762145996094L110.96940612792969,-60.07817459106445L110.94148254394531,-59.07856750488281L110.91858673095703,-58.07883071899414L110.90071105957031,-57.0789909362793L110.88782501220703,-56.079078674316406L110.87982177734375,-55.0791130065918L110.87680053710938,-54.07911682128906L110.87861633300781,-53.07912063598633L110.88544464111328,-52.07914352416992L110.89710998535156,-51.07921600341797L110.91389465332031,-50.0793571472168L110.93553924560547,-49.079593658447266L110.96248626708984,-48.0799560546875L110.9800033569336,-47.5099983215332"/>
<path fill="black" stroke="black" d="M113.04000091552734,-42.88999938964844L112.7717742919922,-41.92664337158203L112.50354766845705,-40.963287353515625L112.23531341552736,-39.99993133544922L111.9670867919922,-39.03657913208008L111.69886016845703,-38.07322311401367L111.343505859375,-38.43960952758789L110.95186614990234,-39.35972595214844L110.56021881103516,-40.27984619140625L110.1685791015625,-41.19996643066406L109.77693939208984,-42.12008285522461L109.38529968261719,-43.040199279785156L108.99365997314453,-43.96031951904297L108.60202026367188,-44.88043975830078L108.21038055419922,-45.80055618286133L107.81874084472656,-46.72067642211914L107.57931518554688,-47.54703903198242L108.57725524902344,-47.61128234863281L109.57518768310547,-47.67552947998047L110.5731201171875,-47.73977279663086L111.57105255126953,-47.80401611328125L112.56899261474611,-47.868263244628906L113.56692504882814,-47.9325065612793L114.43181610107422,-47.88877868652344L114.16358947753906,-46.92542266845703L113.8953628540039,-45.962066650390625L113.62712860107422,-44.99871063232422L113.35890197753906,-44.03535461425781L113.0906753540039,-43.071998596191406L113.04000091552734,-42.88999938964844"/>
</g>
<!-- 4&#45;&gt;3 -->
<g id="edge6" class="edge">
<title style="opacity: 0.4268;">4-&gt;3</title>
<path fill="none" stroke="black" d="M123.54000091552734,-36.279998779296875L123.63923645019531,-37.27505874633789L123.73083496093751,-38.270851135253906L123.81521606445314,-39.26728439331055L123.89276885986328,-40.26426696777344L123.9638137817383,-41.26173782348633L124.02841186523438,-42.259647369384766L124.0870590209961,-43.2579231262207L124.13995361328125,-44.25652313232422L124.18702697753906,-45.25541305541992L124.22871398925781,-46.254539489746094L124.26503753662111,-47.25387954711914L124.29605865478516,-48.253395080566406L124.32206726074219,-49.253055572509766L124.34284210205078,-50.252838134765625L124.35875701904297,-51.25271224975586L124.36964416503906,-52.25265121459961L124.37565612792969,-53.252628326416016L124.37677764892578,-54.252628326416016L124.37298583984375,-55.252620697021484L124.36436462402344,-56.25258255004883L124.3507308959961,-57.25248718261719L124.33228302001953,-58.25231552124024L124.30867004394531,-59.252037048339844L124.28012084960939,-60.25162887573242L124.2699966430664,-60.56999969482422"/>
<path fill="black" stroke="black" d="M125.78512573242189,-65.43499755859375L126.17710876464844,-64.51502227783203L126.569091796875,-63.59505081176758L126.96106719970703,-62.675079345703125L127.3530502319336,-61.755104064941406L127.74503326416017,-60.83513259887696L126.8003616333008,-60.735382080078125L125.80262756347656,-60.66819763183594L124.80488586425783,-60.601016998291016L123.80714416503906,-60.53383255004883L122.80940246582031,-60.466651916503906L121.81166076660156,-60.39946746826172L120.81391906738281,-60.3322868347168L121.03802490234375,-61.26090621948242L121.30513763427734,-62.224571228027344L121.5722427368164,-63.18823623657227L121.83934783935548,-64.15190124511719L122.10646057128906,-65.11557006835938L122.37356567382812,-66.07923889160156L122.64067840576173,-67.04290008544922L122.9077835083008,-68.0065689086914L123.17489624023438,-68.9702377319336L123.44200134277344,-69.93390655517578L123.75544738769531,-70.19864654541016L124.14742279052734,-69.27867126464844L124.5394058227539,-68.35869598388672L124.93138122558594,-67.438720703125L125.32336425781251,-66.51874542236328L125.71534729003906,-65.5987777709961L125.78512573242189,-65.43499755859375"/>
</g>
</g>
</svg>