<?xml version="1.0" standalone="no"?>
<svg xmlns="http://www.w3.org/2000/svg" xmlns:xlink="http://www.w3.org/1999/xlink" width="194pt" height="188pt" viewBox="0.00 0.00 193.85 188">
<g id="graph0" class="graph" transform="translate(4,184) scale(1)" data-name="G">

<polygon fill="white" stroke="none" points="-4,4 -4,-184 189.85,-184 189.85,4 -4,4"/>
<!-- 1 -->
<g id="node1" class="node" pointer-events="visible" data-name="1">

<ellipse fill="none" stroke="black" cx="54" cy="-162" rx="28.39" ry="18"/>
<text text-anchor="middle" x="54" y="-157.8" font-family="Times,serif" font-size="14.00">Ivan</text>
</g>
<!-- 2 -->
<g id="node2" class="node" pointer-events="visible" data-name="2">

<ellipse fill="none" stroke="black" cx="27" cy="-90" rx="27" ry="18"/>
<text text-anchor="middle" x="27" y="-85.8" font-family="Times,serif" font-size="14.00">Eva</text>
</g>
<!-- 1&#45;&gt;2 -->
<g id="edge1" class="edge" data-name="1-&gt;2">

<path fill="none" stroke="black" d="M47.46,-144.05C44.48,-136.32 40.87,-126.96 37.52,-118.27"/>
<polygon fill="black" stroke="black" points="40.88,-117.27 34.02,-109.2 34.35,-119.79 40.88,-117.27"/>
</g>
<!-- 3 -->
<g id="node3" class="node" pointer-events="visible" data-name="3">

<ellipse fill="none" stroke="black" cx="148" cy="-90" rx="37.71" ry="18"/>
<text text-anchor="middle" x="148" y="-85.8" font-family="Times,serif" font-size="14.00">Georgi</text>
</g>
<!-- 1&#45;&gt;3 -->

<!-- 2&#45;&gt;1 -->
<g id="edge4" class="edge" data-name="2-&gt;4" data-comment="2-&gt;1">

<path fill="none" stroke="black" d="M39.21,-73.46C46.11,-64.67 54.91,-53.48 62.73,-43.53"/>
<polygon fill="black" stroke="black" points="65.47,-45.71 68.89,-35.68 59.96,-41.38 65.47,-45.71"/>
</g>
<!-- 5 -->
<g id="edge2" class="edge" data-name="1-&gt;4" data-comment="5">

<path fill="none" stroke="black" d="M57.38,-143.87C62.11,-119.88 70.76,-75.99 76.45,-47.16"/>
<polygon fill="black" stroke="black" points="79.82,-48.16 78.32,-37.67 72.95,-46.81 79.82,-48.16"/>
</g>
<!-- 3&#45;&gt;4 -->
<g id="edge3" class="edge" data-name="3-&gt;4">

<path fill="none" stroke="black" d="M133.02,-73.12C124.35,-63.91 113.27,-52.17 103.66,-41.97"/>
<polygon fill="black" stroke="black" points="106.46,-39.84 97.05,-34.97 101.37,-44.64 106.46,-39.84"/>
</g><g id="node4" class="node" pointer-events="visible" data-name="4" data-comment="3-&gt;4">

<ellipse fill="none" stroke="black" cx="82" cy="-18" rx="28.95" ry="18"/>
<text text-anchor="middle" x="82" y="-13.8" font-family="Times,serif" font-size="14.00">Zara</text>
</g>
</g>
</svg>